PathFileType	4	(X/Y/Z)	pose_F01_0-84.trc
DataRate	CameraRate	NumFrames	NumMarkers	Units	OrigDataRate	OrigDataStartFrame	OrigNumFrames
30	30	7	21	m	30	42	84
Frame#	Time	CHip			RHip			RKnee			RAnkle			RBigToe			RSmallToe			RHeel			LHip			LKnee			LAnkle			LBigToe			LSmallToe			LHeel			Neck			Nose			RShoulder			RElbow			RWrist			LShoulder			LElbow			LWrist			
		X1	Y1	Z1	X2	Y2	Z2	X3	Y3	Z3	X4	Y4	Z4	X5	Y5	Z5	X6	Y6	Z6	X7	Y7	Z7	X8	Y8	Z8	X9	Y9	Z9	X10	Y10	Z10	X11	Y11	Z11	X12	Y12	Z12	X13	Y13	Z13	X14	Y14	Z14	X15	Y15	Z15	X16	Y16	Z16	X17	Y17	Z17	X18	Y18	Z18	X19	Y19	Z19	X20	Y20	Z20	X21	Y21	Z21	
42	1.4	-0.17471345816385553	1.8438091989821348	-0.5970696303999472	-0.18685455486057012	1.839168035014496	-0.5317048855873118	-0.18023389036338805	1.7162742206368216	-0.5189402098708811	-0.17476599864435943	1.6019268545316756	-0.5149490711329914	-0.19879181591283732	1.5694650882175867	-0.47177875954706716	-0.1942242704676095	1.5759478483127698	-0.45032534662497625	-0.17224934512494058	1.5931328237254132	-0.5297355950358857	-0.16285946983870817	1.8468430940924572	-0.6564076079467298	-0.17438031412290603	1.7228519415473835	-0.6384742180660813	-0.1644164669278135	1.5949005328818788	-0.6510253607672951	-0.19691501323930816	1.5638312669932295	-0.6183008941785958	-0.18666259586021897	1.5672699043826093	-0.6502377164120844	-0.15634025084432798	1.5852388578545342	-0.6496590157602933	-0.1646815891229717	1.9870468402529506	-0.6053591620961787	-0.18448075870869127	2.051204338304478	-0.6044047178286495	-0.1845018156656856	1.981549692843278	-0.5114886221075776	-0.19833711433637502	1.9051599210903267	-0.475767250306229	-0.18691962265155243	1.9328020223006463	-0.5648924986962873	-0.14137883724809225	1.9934966107496692	-0.6958325596457828	-0.14663445778821768	1.9177874865043247	-0.7185369069976226	-0.17771524733308125	1.9540729420523075	-0.6648781114527101
43	1.4333333333333333	-0.17385700386542155	1.841558129800915	-0.6021199030900733	-0.18515839141227322	1.8369435168018695	-0.5336515698395321	-0.17914550861238593	1.7164133201489793	-0.5242878662718019	-0.17408594123303564	1.6006225101771197	-0.5112680842602734	-0.20185895255143693	1.5696180695968855	-0.47293518726816797	-0.19723912234594132	1.5761140035479209	-0.45147323965065134	-0.1722836470969437	1.590722766754474	-0.5293334097233847	-0.1618428445610323	1.8471535543889288	-0.6618580201734022	-0.17583798160049685	1.7244180910804594	-0.6539125636510648	-0.16400622273015983	1.597648711280781	-0.6684305519625611	-0.19512018989683266	1.5641260675179545	-0.6415468783353431	-0.18496984432761815	1.565989589620118	-0.6728733740794458	-0.15891753166261458	1.5879981290202048	-0.6680949244868466	-0.16771511798064184	1.987266847643104	-0.6066752662852596	-0.18543574441471283	2.051278050714947	-0.6073920110664528	-0.1875611335324625	1.981831146307047	-0.512972129953542	-0.19754835368749016	1.9041624706910998	-0.4811425772419298	-0.18772305870249614	1.936253500964008	-0.5775441238647929	-0.14443053603305822	1.9938075907494572	-0.6970698402468674	-0.1489818026469003	1.9206436434330076	-0.7284252430942713	-0.17844939905021426	1.9604428126412607	-0.6782971216361029
44	1.4666666666666666	-0.17550362387681534	1.8442857728372037	-0.6092175540711082	-0.18672755609728997	1.8399591993386268	-0.5494359192943117	-0.18053014650509347	1.7206088162106792	-0.5277467002531929	-0.1729324950491998	1.6036270425859598	-0.5170760123864262	-0.19962009693368907	1.5712588516829968	-0.47564985825696876	-0.1939981845417666	1.5774321244225347	-0.45100607312102564	-0.17020649747103755	1.5937165764706454	-0.5320216542404747	-0.1620806079228117	1.8487698708700362	-0.674079346182796	-0.1733202353159919	1.7246989843040341	-0.6650762354092797	-0.16786361545897655	1.5908706414787854	-0.6933134439420956	-0.19552251511143318	1.5544443927983767	-0.6698234327380997	-0.18847676932256965	1.5579102694685227	-0.7016150295038514	-0.1585156122585327	1.5786145330818993	-0.6971641863772353	-0.16642434293138986	1.989743816212872	-0.6122142147815646	-0.18720123485053755	2.0515084532573074	-0.6135441614561996	-0.1874228178829212	1.980710210911157	-0.5211894757776637	-0.19742579910852326	1.906971672279201	-0.49046840615758786	-0.18725715611632526	1.9426586247237747	-0.5871459968058204	-0.14452079139377186	1.9966826958164157	-0.7085141512177778	-0.14382009727409867	1.9235995709684768	-0.7420571724878403	-0.16876262753940266	1.9610831222657061	-0.6955139941107802
45	1.5	-0.17533338081236752	1.8432012948682455	-0.6177659769237639	-0.18669360372645843	1.8388708474156468	-0.5580907822722048	-0.18043160601642388	1.7181059648896313	-0.5364168457936658	-0.17525499156120233	1.6023470125246735	-0.5143659916074464	-0.1996652853494599	1.5712753079396877	-0.47563776749609676	-0.19710043226054816	1.57779565669927	-0.452003350719678	-0.17054453236701583	1.5924644340086116	-0.5313735227413491	-0.16162209748640136	1.8463035364917808	-0.6825544208737883	-0.1713834485685368	1.7196488530907577	-0.6871009909980729	-0.16928416571419425	1.5831020618227472	-0.7203766990811874	-0.1898486232058559	1.5478684846319615	-0.7081279649827786	-0.17896533575785645	1.5529317209270141	-0.7395506998582074	-0.16442454235087678	1.5736888037511345	-0.7199537338148227	-0.1696686586498396	1.9901276603318336	-0.6244016513111572	-0.18799695102027042	2.0528434535495528	-0.6168325101932941	-0.19008926039200444	1.9822107794234043	-0.530897505709851	-0.19848112907083332	1.905974412334843	-0.49391979583693496	-0.18899210152968113	1.942474694488857	-0.5845736742463761	-0.1461127436449743	1.996696470295681	-0.7149461263993646	-0.14523725676883958	1.9249228318437188	-0.7483519585036734	-0.16959133244291594	1.9704806589959731	-0.7018601698014195
46	1.5333333333333334	-0.17586494370390227	1.840854831833241	-0.6295144784938591	-0.18560847395906427	1.836398103787072	-0.5635097112906842	-0.18046743108706773	1.7196644896613502	-0.545444564445336	-0.1729911467054315	1.603792120566707	-0.5171560464008702	-0.1996365244957214	1.5713838776753235	-0.4758037181811196	-0.19514759265494894	1.5778518694930213	-0.4542077338803824	-0.1693103733713035	1.593915644260516	-0.5287457854939519	-0.15895469666716577	1.8440169479199116	-0.6933423689410726	-0.16497303903291496	1.7162440644705275	-0.7060701214945119	-0.16219516525336564	1.5796242056237357	-0.747862242043374	-0.1910488866750692	1.5371367880983628	-0.7307069233777703	-0.17982270850790813	1.5442747843282967	-0.7627068446028069	-0.15916736893920078	1.5704500831712533	-0.7414829135810068	-0.17009147542575365	1.9904074138842254	-0.6362378340150442	-0.18862618811976148	2.0533277042764726	-0.6282478370599112	-0.1887969911317692	1.981311193665153	-0.5446811039219588	-0.20124882622175888	1.9064993122776783	-0.5124517469687313	-0.20327493724156384	1.9510075933854385	-0.5873622487190144	-0.14618492486222273	1.998290369419587	-0.7265416601993024	-0.14532592711969122	1.9254503058321575	-0.7601557692166737	-0.1729209184307415	1.9662649051433752	-0.7137479964354596
47	1.5666666666666667	-0.17486079837235932	1.841198435624607	-0.6472741497577439	-0.18876799766385785	1.8368860342352433	-0.5853765317399349	-0.17993178179011649	1.7169240802402668	-0.5543868030442984	-0.17296810703069265	1.600959317204752	-0.5168190582073434	-0.1996976229456231	1.5715918161719373	-0.4758563081268189	-0.19523384306595726	1.5782782948045386	-0.45429338517975953	-0.1693648245670456	1.5914698408236905	-0.5283247165869716	-0.15922968708749807	1.8444854399969857	-0.7172854271410777	-0.1616291481689482	1.7140376227773517	-0.7255337073716679	-0.16124911702815234	1.5734071042424023	-0.7552579138132467	-0.18718617945427699	1.53371841063381	-0.7293893656446931	-0.2851335172478249	1.4785961408965902	-1.1828370284006309	-0.15316404593974847	1.561258621220026	-0.7534712445335924	-0.17024250725974593	1.9897465927347944	-0.6567235283554009	-0.19292605578314542	2.052617401637325	-0.6434213336578981	-0.19216073685441623	1.981950490343728	-0.5661105199367157	-0.20209167097696124	1.905703088000922	-0.5333149793572041	-1.5836434371177515	1.867758099112075	0.8699173155641812	-0.14440168532702555	1.9965371673723695	-0.7516837505279452	-0.14700459400713617	1.9221255759439015	-0.7776047750924349	-0.17540117244704917	1.9659134490014152	-0.7227081042789714
48	1.6	-0.17366651649943946	1.8432199813985732	-0.6735034790881748	-0.19128289913127589	1.8386995787644675	-0.6041986783283728	-0.1829483957337944	1.7213846218925435	-0.5733670501402309	-0.1742310263614094	1.6024298397149435	-0.5200542521549395	-0.1996786276686648	1.5713935469437443	-0.47575214832456497	-0.19524200338629175	1.5783192783961995	-0.45425464937011334	-0.1705581709703517	1.592544760540643	-0.5314781175013971	-0.15830724661209744	1.8450975731825487	-0.7345741636468984	-0.1578722373537093	1.7119068654338965	-0.7413920003754745	-0.15636886111973308	1.5675775693466516	-0.7553067658722878	-0.18829998706149326	1.5289509066652414	-0.7314511916586939	-0.2817589681693206	1.4731567840021276	-1.18197140468568	-0.146601237676335	1.5548676631841771	-0.7584041926067069	-0.16817275386378974	1.9879476327534444	-0.6788479909485865	-0.1921701275579447	2.0532572331846644	-0.6601642454967764	-0.19178821368907933	1.9812686704260547	-0.5834675230085811	-0.2033894574936385	1.9061896972207604	-0.5571099160700863	-1.5465086369025787	1.861243175466943	0.8099778279635226	-0.14528450635722776	1.9961145500851427	-0.7774555383562282	-1.268957993913335	1.8361330789547707	0.33358630981010146	-1.3592020803109843	1.8617853406161118	0.4817809433891473
